<?xml version="1.0" standalone="no"?>
<!DOCTYPE svg PUBLIC "-//W3C//DTD SVG 20010904//EN"
 "http://www.w3.org/TR/2001/REC-SVG-20010904/DTD/svg10.dtd">
<svg version="1.0" xmlns="http://www.w3.org/2000/svg"
 width="300.000000pt" height="173.000000pt" viewBox="0 0 300.000000 173.000000"
 preserveAspectRatio="xMidYMid meet">
<metadata>
Created by potrace 1.10, written by Peter Selinger 2001-2011
</metadata>
<g transform="translate(0.000000,173.000000) scale(0.100000,-0.100000)"
fill="#ffffff" stroke="none">
<path d="M930 1352 c0 -11 7 -22 15 -26 18 -7 21 -76 3 -94 -9 -9 -9 -15 0
-24 18 -18 15 -95 -4 -106 -31 -17 -6 -27 60 -24 46 3 66 8 66 17 0 7 -9 15
-20 18 -14 3 -20 14 -20 31 0 24 4 26 41 26 31 0 47 6 70 29 40 40 40 89 0
133 -28 32 -32 33 -120 36 -85 4 -91 3 -91 -16z m170 -47 c17 -20 16 -65 -1
-76 -8 -5 -26 -9 -41 -9 -26 0 -28 3 -28 43 0 24 3 47 7 50 12 12 50 7 63 -8z"/>
<path d="M1190 1351 c0 -11 4 -21 9 -23 11 -4 18 -79 8 -94 -3 -6 -3 -34 2
-63 6 -41 5 -54 -5 -58 -8 -3 -14 -11 -14 -19 0 -10 15 -14 60 -14 45 0 60 4
60 14 0 8 -5 16 -11 18 -6 2 -13 20 -15 41 -3 31 0 37 16 37 14 0 30 -18 51
-55 30 -54 32 -55 75 -55 32 0 44 4 44 15 0 8 -6 15 -14 15 -8 0 -26 21 -40
46 -30 54 -30 54 -11 54 31 0 47 79 25 120 -14 26 -70 40 -162 40 -70 0 -78
-2 -78 -19z m169 -35 c7 -8 11 -30 9 -48 -3 -29 -7 -33 -40 -39 -21 -3 -40 -4
-43 -1 -3 3 -5 27 -5 54 0 48 0 48 34 48 18 0 39 -6 45 -14z"/>
<path d="M1493 1357 c-3 -5 4 -17 16 -28 23 -22 29 -77 9 -97 -9 -9 -9 -15 0
-24 17 -17 15 -83 -3 -98 -30 -25 -13 -30 100 -30 l115 0 0 40 c0 43 -13 52
-30 20 -8 -15 -21 -20 -55 -20 l-45 0 0 45 c0 47 9 56 30 30 24 -29 40 -18 40
30 0 32 -4 45 -14 45 -8 0 -16 -7 -20 -15 -3 -8 -12 -15 -21 -15 -11 0 -15 11
-15 40 l0 40 44 0 c25 0 48 -4 51 -10 14 -23 31 -9 27 23 l-4 32 -110 0 c-60
0 -112 -4 -115 -8z"/>
<path d="M1770 1354 c0 -8 7 -22 15 -30 18 -18 20 -65 3 -82 -9 -9 -9 -18 0
-37 16 -36 15 -80 -3 -95 -31 -26 -17 -35 50 -32 48 3 65 7 65 18 0 8 -7 14
-15 14 -10 0 -15 10 -15 30 0 27 3 30 30 30 76 0 120 58 97 128 -17 51 -61 72
-154 72 -60 0 -73 -3 -73 -16z m172 -59 c18 -40 -3 -75 -46 -75 -33 0 -34 1
-32 38 2 48 12 62 42 62 16 0 28 -8 36 -25z"/>
<path d="M1283 1011 c-63 -12 -94 -61 -74 -114 11 -28 61 -57 100 -57 11 0 27
-7 35 -16 24 -23 4 -54 -34 -54 -29 0 -70 29 -70 50 0 6 -8 10 -18 10 -15 0
-17 -8 -16 -52 l2 -51 84 2 c75 1 85 4 106 27 47 53 8 134 -71 149 -47 9 -62
27 -47 54 21 41 84 21 103 -31 12 -35 27 -17 27 32 l0 50 -34 0 c-19 0 -40 2
-48 4 -7 2 -28 1 -45 -3z"/>
<path d="M1563 1013 l-123 -4 0 -44 c0 -51 19 -61 38 -20 7 15 20 25 32 25 19
0 20 -6 20 -100 0 -80 -3 -102 -15 -106 -8 -4 -15 -14 -15 -23 0 -14 10 -16
67 -15 72 1 90 15 54 40 -23 17 -29 72 -9 92 8 8 8 15 -1 26 -7 8 -11 30 -9
48 2 28 7 33 28 33 18 0 26 -6 28 -22 2 -13 10 -23 18 -23 10 0 14 13 14 50 0
28 -1 49 -2 48 -2 -1 -58 -4 -125 -5z"/>
<path d="M1723 1006 c-4 -5 2 -15 12 -23 17 -11 19 -25 16 -106 -2 -66 -6 -95
-17 -103 -8 -6 -14 -20 -14 -30 0 -18 9 -19 120 -19 l120 0 0 48 c0 51 -18 64
-35 25 -8 -19 -19 -24 -57 -26 l-48 -3 0 38 c0 22 5 44 12 51 9 9 9 15 0 24
-18 18 -15 87 3 94 8 4 15 14 15 23 0 13 -11 16 -61 16 -33 0 -63 -4 -66 -9z"/>
<path d="M2585 1013 c-31 -7 -64 -43 -89 -95 l-23 -48 27 -58 c16 -32 38 -63
52 -69 12 -7 56 -13 96 -15 l72 -4 0 62 c0 46 4 63 15 68 8 3 15 12 15 21 0
12 -12 15 -55 15 -43 0 -55 -3 -55 -15 0 -9 7 -18 15 -21 19 -8 19 -58 0 -74
-21 -17 -62 -5 -81 25 -24 37 -15 132 16 157 31 25 67 23 94 -7 13 -14 26 -25
30 -25 3 0 6 19 6 43 l0 42 -58 1 c-31 1 -66 -1 -77 -3z"/>
<path d="M190 995 c0 -8 5 -15 11 -15 15 0 41 -70 35 -95 -3 -13 0 -27 8 -34
7 -6 21 -37 30 -69 14 -53 18 -58 43 -56 26 1 30 6 48 72 11 40 22 72 25 72 3
0 14 -32 25 -72 18 -65 22 -72 46 -73 26 -1 28 4 60 118 21 78 39 123 51 131
37 23 20 36 -47 36 -49 0 -65 -3 -65 -14 0 -7 9 -16 19 -19 19 -5 19 -7 3 -66
-15 -56 -32 -81 -32 -47 0 8 -9 44 -20 80 -18 56 -24 66 -44 66 -20 0 -25 -9
-41 -75 -11 -41 -22 -72 -25 -67 -4 4 -12 27 -19 51 -11 39 -11 46 3 57 32 23
17 34 -49 34 -51 0 -65 -3 -65 -15z"/>
<path d="M620 997 c0 -9 4 -18 9 -22 6 -3 10 -52 10 -109 0 -84 -3 -106 -16
-110 -33 -13 -4 -28 55 -30 53 -1 62 2 62 17 0 9 -7 17 -15 17 -11 0 -15 11
-15 40 0 61 30 55 69 -14 33 -57 45 -66 92 -66 22 0 29 5 29 20 0 11 -6 20
-14 20 -8 0 -26 19 -40 42 l-25 42 25 22 c32 30 33 92 3 120 -29 26 -229 35
-229 11z m168 -39 c7 -7 12 -21 12 -33 0 -30 -19 -45 -57 -45 -32 0 -33 1 -33
45 0 44 1 45 33 45 18 0 38 -5 45 -12z"/>
<path d="M920 999 c0 -7 7 -17 15 -23 8 -6 14 -27 15 -46 0 -46 0 -77 1 -125
1 -21 -4 -41 -10 -43 -6 -2 -11 -11 -11 -20 0 -15 14 -17 115 -17 l115 0 0 48
c0 35 -4 47 -15 47 -8 0 -15 -8 -15 -18 0 -27 -20 -42 -57 -42 -37 0 -53 21
-53 69 0 34 14 39 41 15 25 -22 36 -11 35 32 -2 39 -21 57 -32 30 -3 -9 -15
-16 -25 -16 -14 0 -19 7 -19 29 0 57 47 77 93 41 34 -27 37 -26 37 15 l0 35
-115 0 c-79 0 -115 -4 -115 -11z"/>
<path d="M1990 996 c0 -8 7 -16 15 -20 12 -4 15 -26 15 -106 0 -80 -3 -102
-15 -106 -8 -4 -15 -14 -15 -23 0 -14 10 -17 60 -16 50 0 60 3 60 17 0 9 -4
20 -10 23 -14 9 -13 78 2 93 9 9 9 15 0 24 -15 15 -16 84 -2 93 6 3 10 13 10
21 0 11 -14 14 -60 14 -45 0 -60 -4 -60 -14z"/>
<path d="M2150 991 c0 -10 7 -21 15 -25 12 -4 15 -25 15 -100 0 -74 -3 -95
-15 -100 -8 -3 -15 -13 -15 -23 0 -15 9 -18 60 -18 63 0 75 11 45 41 -10 10
-15 35 -15 72 0 31 4 52 8 47 5 -6 32 -43 61 -82 47 -65 56 -73 86 -73 l33 0
-6 46 c-3 27 0 55 8 68 9 18 9 29 1 44 -16 29 -14 67 4 82 31 26 17 40 -40 40
-54 0 -69 -11 -46 -35 10 -11 20 -125 11 -125 -3 0 -25 26 -48 58 -74 100 -76
102 -121 102 -34 0 -41 -3 -41 -19z m240 -176 c0 -8 -5 -17 -11 -21 -16 -9
-30 18 -17 33 12 15 28 8 28 -12z"/>
<path d="M530 652 c0 -10 5 -23 11 -29 12 -12 -14 -72 -38 -86 -8 -5 -11 -16
-8 -26 6 -21 -19 -87 -43 -110 -14 -15 -11 -16 42 -19 65 -3 80 3 53 23 -15
11 -16 17 -7 34 9 18 20 21 70 21 52 0 59 -3 66 -22 4 -13 2 -24 -5 -26 -6 -2
-11 -10 -11 -18 0 -10 14 -14 55 -14 56 0 70 12 40 34 -20 15 -96 204 -84 211
5 4 9 15 9 26 0 17 -7 19 -75 19 -66 0 -75 -2 -75 -18z m104 -119 c7 -21 4
-23 -29 -23 -31 0 -36 3 -30 18 4 9 12 30 17 46 l11 29 12 -24 c7 -13 16 -34
19 -46z"/>
<path d="M850 663 c-26 -10 -58 -44 -71 -76 -7 -18 -19 -40 -27 -50 -14 -15
-14 -19 0 -30 9 -6 19 -25 22 -41 17 -70 101 -111 169 -83 42 18 78 74 55 88
-9 6 -20 -1 -36 -21 -51 -65 -122 -22 -122 72 0 75 22 108 73 108 22 0 31 -7
44 -35 22 -47 37 -40 38 17 0 45 -1 46 -35 52 -42 7 -89 6 -110 -1z"/>
<path d="M1090 651 c0 -11 4 -23 10 -26 13 -8 -15 -77 -36 -88 -9 -5 -12 -16
-9 -26 6 -21 -19 -87 -43 -110 -14 -15 -11 -16 42 -19 64 -3 80 3 54 22 -11 8
-15 20 -11 34 5 20 12 22 68 22 57 0 63 -2 69 -22 3 -13 1 -24 -4 -26 -6 -2
-10 -10 -10 -18 0 -10 14 -14 55 -14 58 0 64 4 40 30 -24 27 -94 204 -84 215
5 5 9 17 9 27 0 16 -9 18 -75 18 -68 0 -75 -2 -75 -19z m109 -133 c1 -5 -15
-8 -35 -8 -30 0 -35 3 -29 18 4 9 12 30 18 47 l10 29 18 -39 c10 -22 18 -43
18 -47z"/>
<path d="M1350 656 c0 -8 6 -16 14 -19 11 -5 14 -29 14 -111 0 -78 -3 -108
-14 -117 -28 -23 -12 -29 82 -29 95 0 96 0 128 33 73 72 48 222 -41 246 -58
17 -183 14 -183 -3z m164 -31 c53 -54 15 -244 -42 -209 -14 9 -18 29 -20 104
-3 92 5 120 34 120 7 0 19 -7 28 -15z"/>
<path d="M1630 660 c0 -5 9 -19 20 -30 22 -22 26 -70 8 -88 -10 -10 -10 -17 0
-32 17 -27 15 -75 -3 -94 -31 -31 -17 -36 100 -36 l115 0 0 40 c0 43 -23 57
-33 19 -5 -17 -12 -20 -54 -17 -47 3 -48 4 -51 37 -4 44 11 60 36 38 31 -28
42 -21 42 28 0 48 -16 59 -40 30 -29 -35 -53 0 -34 49 7 18 88 23 99 6 13 -21
25 -9 25 25 l0 35 -115 0 c-70 0 -115 -4 -115 -10z"/>
<path d="M1900 650 c0 -11 7 -20 15 -20 21 0 30 -48 17 -84 -8 -20 -8 -34 -2
-40 18 -18 12 -75 -10 -88 -39 -25 -24 -38 45 -38 65 0 81 10 51 34 -12 10
-33 156 -22 156 2 0 21 -27 42 -60 22 -33 42 -60 45 -60 4 0 24 25 44 55 21
30 40 54 41 52 2 -2 1 -34 -3 -71 -5 -55 -10 -70 -25 -74 -10 -2 -18 -11 -18
-18 0 -11 17 -14 70 -14 73 0 83 7 52 38 -20 20 -22 73 -3 96 8 10 8 16 -3 25
-18 15 -13 71 6 86 8 5 12 18 10 28 -3 13 -14 17 -50 17 -46 0 -48 -1 -82 -55
-19 -30 -37 -55 -40 -55 -3 0 -21 25 -39 55 l-33 55 -54 0 c-47 0 -54 -2 -54
-20z m290 -55 c0 -27 -1 -28 -24 -19 -12 5 -13 10 -5 25 14 27 29 24 29 -6z"/>
<path d="M2280 650 c0 -11 4 -20 9 -20 13 0 54 -72 53 -93 0 -10 8 -23 19 -30
28 -17 27 -87 -1 -94 -11 -3 -20 -12 -20 -19 0 -11 18 -14 75 -14 57 0 75 3
75 14 0 7 -9 16 -20 19 -29 7 -29 82 0 97 10 6 17 17 14 24 -6 15 43 96 57 96
5 0 9 9 9 20 0 17 -7 20 -51 20 -51 0 -51 0 -46 -28 4 -18 -2 -39 -17 -65
l-23 -38 -21 36 c-15 24 -20 44 -15 65 l6 30 -52 0 c-44 0 -51 -3 -51 -20z"/>
</g>
</svg>
